<svg width="145" height="62" viewBox="0 0 145 62" fill="none" xmlns="http://www.w3.org/2000/svg">
<path d="M10.1209 5.61901V22.4575L10.0866 22.4233L0.0136719 32.4894V5.62587C0.0136719 2.83886 2.27341 0.572266 5.06727 0.572266C6.4642 0.572266 7.73102 1.13378 8.64177 2.05821C9.55936 2.96211 10.1209 4.22893 10.1209 5.61901Z" fill="#22407C"/>
<path d="M10.0798 33.0376L10.1141 33.0718V45.7948C10.1141 48.5819 7.85431 50.8485 5.0536 50.8485C2.26659 50.8485 0 48.5887 0 45.7948V43.1106L10.0798 33.0376Z" fill="#457ABD"/>
<path d="M48.9884 5.61902V12.2544L38.8744 22.3685V5.61902C38.8744 2.83201 41.1341 0.56543 43.928 0.56543C45.3249 0.56543 46.5917 1.12694 47.5025 2.05138C48.4269 2.96212 48.9884 4.22894 48.9884 5.61902Z" fill="#22407C"/>
<path d="M38.8744 33.0032L48.9884 22.8892V45.8016C48.9884 48.5886 46.7287 50.8552 43.928 50.8552C41.141 50.8552 38.8744 48.5954 38.8744 45.8016V33.0032Z" fill="#457ABD"/>
<path d="M29.5547 16.1989V31.928L24.4531 37.0296L19.4406 32.017V16.2057C19.4406 13.4187 21.7004 11.1521 24.4942 11.1521C25.8911 11.1521 27.158 11.7136 28.0687 12.638C28.9932 13.5419 29.5547 14.8156 29.5547 16.1989Z" fill="#22407C"/>
<path d="M24.4531 47.6504L29.5547 42.5488V56.3812C29.5547 59.1682 27.2949 61.4348 24.4942 61.4348C21.7072 61.4348 19.4406 59.175 19.4406 56.3812V42.631L24.4531 47.6504Z" fill="#457ABD"/>
<path d="M79.7277 11.3645H81.0082V23.4918H78.6389V16.6783L75.1466 21.4101H74.2427L70.7298 16.7057V23.4849H68.381V11.3577H69.641L74.7015 18.2191L79.7277 11.3645Z" fill="#22407C"/>
<path d="M87.8902 23.6971C86.3426 23.6971 85.1032 23.2588 84.1651 22.3755C83.2269 21.499 82.7613 20.3143 82.7613 18.8215C82.7613 17.3561 83.2338 16.1852 84.1719 15.3018C85.1169 14.4253 86.3495 13.9802 87.8834 13.9802C89.4172 13.9802 90.6498 14.4185 91.5811 15.3018C92.5124 16.1852 92.9781 17.3561 92.9781 18.8215C92.9781 20.3075 92.5124 21.4921 91.5811 22.3755C90.6567 23.252 89.4241 23.6971 87.8902 23.6971ZM87.8902 21.5469C88.6846 21.5469 89.3282 21.3004 89.8213 20.8005C90.3143 20.3006 90.5608 19.6433 90.5608 18.8215C90.5608 18.0135 90.3143 17.363 89.8213 16.87C89.3282 16.3769 88.6846 16.1304 87.8902 16.1304C87.0822 16.1304 86.4317 16.3769 85.9386 16.87C85.4456 17.363 85.1991 18.0135 85.1991 18.8215C85.1991 19.6364 85.4456 20.3006 85.9386 20.8005C86.4317 21.3004 87.0822 21.5469 87.8902 21.5469Z" fill="#22407C"/>
<path d="M94.7379 23.4914V10.5835H97.0867V23.4914H94.7379Z" fill="#22407C"/>
<path d="M101.558 12.6241C101.277 12.9049 100.942 13.0487 100.545 13.0487C100.148 13.0487 99.8051 12.9049 99.5244 12.6241C99.2436 12.3434 99.0998 12.001 99.0998 11.6038C99.0998 11.2066 99.2436 10.8642 99.5244 10.5835C99.8051 10.3027 100.148 10.1589 100.545 10.1589C100.942 10.1589 101.277 10.3027 101.558 10.5835C101.832 10.8642 101.976 11.2066 101.976 11.6038C101.976 12.001 101.839 12.3365 101.558 12.6241ZM99.3326 23.4914V14.1922H101.716V23.4914H99.3326Z" fill="#22407C"/>
<path d="M110.44 14.1924H112.946L109.132 23.5943C108.858 24.2859 108.55 24.8542 108.214 25.2993C107.872 25.7444 107.509 26.0663 107.125 26.2649C106.742 26.4635 106.386 26.5936 106.064 26.662C105.742 26.7305 105.365 26.7648 104.934 26.7648C104.331 26.7648 103.825 26.6963 103.421 26.5593V24.5324C103.921 24.6899 104.366 24.7721 104.763 24.7721C105.728 24.7721 106.427 24.3544 106.858 23.5121L102.681 14.1924H105.304L107.947 20.684L110.44 14.1924Z" fill="#22407C"/>
<path d="M117.643 23.6974C116.281 23.6974 115.192 23.2591 114.37 22.3758C113.555 21.4993 113.145 20.3146 113.145 18.8218C113.145 17.3496 113.549 16.1649 114.357 15.2884C115.165 14.4051 116.226 13.9668 117.541 13.9668C118.753 13.9668 119.711 14.3092 120.403 14.9871V14.1859H122.718V23.4851H120.437V22.5812C119.828 23.3276 118.897 23.6974 117.643 23.6974ZM118.157 21.5814C119.225 21.5814 119.985 21.1706 120.437 20.3557V17.2742C120.211 16.8976 119.883 16.61 119.451 16.3977C119.02 16.1855 118.568 16.0827 118.102 16.0827C117.342 16.0827 116.726 16.3224 116.26 16.8086C115.795 17.2948 115.562 17.9659 115.562 18.8287C115.562 19.6778 115.795 20.3557 116.26 20.8487C116.733 21.3349 117.363 21.5814 118.157 21.5814Z" fill="#22407C"/>
<path d="M72.9348 43.7198C71.9008 43.7198 71.0038 43.6308 70.2368 43.4527C69.4699 43.2747 68.6482 42.9871 67.7717 42.5899L68.6893 40.5151C70.1547 41.2204 71.5311 41.5696 72.8116 41.5696C73.4963 41.5696 74.0168 41.4463 74.3865 41.2067C74.7563 40.9602 74.9412 40.6041 74.9412 40.1247C74.9412 39.6796 74.7426 39.3509 74.3523 39.125C73.962 38.9058 73.3046 38.7073 72.387 38.5361C71.6612 38.3854 71.0517 38.2279 70.5587 38.0567C70.0657 37.8855 69.6069 37.6596 69.1891 37.3857C68.7714 37.1049 68.4564 36.7557 68.251 36.338C68.0456 35.9202 67.9429 35.4204 67.9429 34.8383C67.9429 33.7153 68.3263 32.8251 69.1001 32.1677C69.8739 31.5103 70.9969 31.1816 72.476 31.1816C74.2222 31.1816 75.7424 31.4966 77.0229 32.1198L76.0163 34.1467C74.8453 33.6263 73.6675 33.3661 72.4897 33.3661C71.8324 33.3661 71.3256 33.4893 70.9627 33.7427C70.6066 33.9892 70.4286 34.311 70.4286 34.6945C70.4286 35.1396 70.6477 35.4614 71.0928 35.6737C71.5379 35.886 72.298 36.1051 73.3731 36.3448C74.0305 36.4818 74.5851 36.6256 75.0234 36.7899C75.4685 36.9474 75.8862 37.1597 76.2834 37.4267C76.6805 37.6938 76.975 38.0362 77.1667 38.4607C77.3584 38.8853 77.4543 39.3715 77.4543 39.9398C77.4543 41.1861 77.0708 42.1311 76.3039 42.7679C75.5507 43.3979 74.4208 43.7198 72.9348 43.7198Z" fill="#22407C"/>
<path d="M82.3025 43.6991C81.2822 43.6991 80.5426 43.4525 80.0839 42.9527C79.6251 42.4528 79.3922 41.6721 79.3922 40.6039V36.2762H78.0638V34.1808H79.3922V30.572H81.7068V34.1808H84.4527V36.2762H81.7068V40.2136C81.7068 40.7477 81.7958 41.1243 81.9738 41.3571C82.1519 41.5831 82.4669 41.6995 82.9325 41.6995C83.4666 41.6995 83.9665 41.5968 84.4321 41.3914V43.4525C83.8638 43.6169 83.1516 43.6991 82.3025 43.6991Z" fill="#22407C"/>
<path d="M89.2186 43.6853C86.8699 43.6853 85.6921 42.3774 85.6921 39.7479V34.1807H88.0408V39.1521C88.0408 40.7613 88.664 41.5693 89.9171 41.5693C90.7662 41.5693 91.4921 41.2133 92.081 40.4942V34.1738H94.4297V43.473H92.1974V42.5212C91.4031 43.295 90.4101 43.6853 89.2186 43.6853Z" fill="#22407C"/>
<path d="M100.524 43.6854C99.1615 43.6854 98.0727 43.2471 97.251 42.3638C96.4361 41.4873 96.0252 40.3026 96.0252 38.8098C96.0252 37.3376 96.4292 36.1529 97.2373 35.2764C98.0453 34.393 99.1067 33.9548 100.421 33.9548C101.633 33.9548 102.592 34.2972 103.284 34.9751V30.5652H105.598V43.4731H103.318V42.5692C102.709 43.3156 101.777 43.6854 100.524 43.6854ZM101.038 41.5694C102.106 41.5694 102.866 41.1586 103.318 40.3437V37.2622C103.092 36.8856 102.763 36.598 102.332 36.3857C101.901 36.1734 101.449 36.0707 100.983 36.0707C100.223 36.0707 99.6066 36.3104 99.1409 36.7966C98.6753 37.2828 98.4425 37.9539 98.4425 38.8167C98.4425 39.6658 98.6753 40.3437 99.1409 40.8367C99.6134 41.3229 100.243 41.5694 101.038 41.5694Z" fill="#22407C"/>
<path d="M110.008 32.6126C109.727 32.8934 109.392 33.0372 108.995 33.0372C108.598 33.0372 108.255 32.8934 107.974 32.6126C107.694 32.3319 107.55 31.9895 107.55 31.5923C107.55 31.1952 107.694 30.8528 107.974 30.572C108.255 30.2913 108.598 30.1475 108.995 30.1475C109.392 30.1475 109.727 30.2913 110.008 30.572C110.282 30.8528 110.426 31.1952 110.426 31.5923C110.426 31.9895 110.282 32.3319 110.008 32.6126ZM107.783 43.4799V34.1808H110.166V43.4799H107.783Z" fill="#22407C"/>
<path d="M118.89 34.1812H121.396L117.582 43.583C117.308 44.2747 117 44.843 116.664 45.2881C116.322 45.7332 115.959 46.0551 115.575 46.2536C115.192 46.4522 114.836 46.5823 114.514 46.6508C114.192 46.7193 113.816 46.7535 113.384 46.7535C112.782 46.7535 112.275 46.685 111.871 46.5481V44.5212C112.371 44.6787 112.816 44.7608 113.213 44.7608C114.179 44.7608 114.877 44.3431 115.308 43.5009L111.131 34.1812H113.754L116.397 40.6728L118.89 34.1812Z" fill="#22407C"/>
<path d="M126.093 43.6857C124.731 43.6857 123.642 43.2474 122.82 42.364C122.005 41.4875 121.595 40.3029 121.595 38.8101C121.595 37.3378 121.999 36.1532 122.807 35.2767C123.615 34.3933 124.676 33.9551 125.991 33.9551C127.203 33.9551 128.161 34.2975 128.853 34.9754V34.1742H131.168V43.4734H128.887V42.5695C128.271 43.3159 127.34 43.6857 126.093 43.6857ZM126.6 41.5697C127.668 41.5697 128.429 41.1589 128.88 40.344V37.2625C128.655 36.8859 128.326 36.5983 127.894 36.386C127.463 36.1737 127.011 36.071 126.545 36.071C125.785 36.071 125.169 36.3107 124.703 36.7969C124.238 37.2831 124.005 37.9541 124.005 38.8169C124.005 39.6661 124.238 40.344 124.703 40.837C125.176 41.3232 125.806 41.5697 126.6 41.5697Z" fill="#22407C"/>
<path d="M136.721 43.7198C135.256 43.7198 133.948 43.4459 132.791 42.9049L133.537 41.0492C134.455 41.6039 135.495 41.8846 136.653 41.8846C137.728 41.8846 138.269 41.5559 138.269 40.8986C138.269 40.6246 138.125 40.4192 137.844 40.2686C137.563 40.1179 137.016 39.9536 136.208 39.7755C135.085 39.529 134.249 39.1866 133.715 38.7552C133.174 38.3238 132.907 37.6938 132.907 36.8653C132.907 35.934 133.236 35.2218 133.9 34.7356C134.564 34.2494 135.468 34.0029 136.618 34.0029C137.796 34.0029 139.015 34.2494 140.261 34.7356L139.494 36.6119C138.597 36.1326 137.632 35.8997 136.598 35.8997C135.687 35.8997 135.235 36.1668 135.235 36.7009C135.235 36.9817 135.365 37.2008 135.639 37.3515C135.906 37.5021 136.44 37.6664 137.248 37.865C138.419 38.1458 139.275 38.5019 139.83 38.9127C140.378 39.3304 140.659 39.9193 140.659 40.6931C140.659 42.6995 139.344 43.7198 136.721 43.7198Z" fill="#22407C"/>
<path d="M144.582 32.6126C144.302 32.8934 143.966 33.0372 143.569 33.0372C143.172 33.0372 142.829 32.8934 142.549 32.6126C142.268 32.3319 142.124 31.9895 142.124 31.5923C142.124 31.1952 142.268 30.8528 142.549 30.572C142.829 30.2913 143.172 30.1475 143.569 30.1475C143.966 30.1475 144.302 30.2913 144.582 30.572C144.856 30.8528 145 31.1952 145 31.5923C145 31.9895 144.863 32.3319 144.582 32.6126ZM142.357 43.4799V34.1808H144.74V43.4799H142.357Z" fill="#22407C"/>
</svg>
